# xmcd
#
# Track frame offsets:
#	182
#	15332
#	31832
#	59607
#	83257
#	97495
#
# Disc length: 1511 seconds
#
# Revision: 1
# Processed by: cddbd v1.4PL0 Copyright (c) Steve Scherf et al.
# Submitted via: EasyCDDAExtractor 5.0.7
#
DISCID=3e05e506
DTITLE=Nicki French - For All We Know
DYEAR=1900
DGENRE=Other
TTITLE0=For All We Know(The Pee Wee Australian Re-Edit-Mixed By Lionel Vinyl, 
TTITLE0=Re-Edited By Pee Wee)
TTITLE1=Total Eclipse Of The Heart-For All We Know(Razor Sharp Mix-Edited By C
TTITLE1=rispin Sharp At N.D.T.)
TTITLE2=For All We Know(Yerp Mix-Seth And Jess TheThub Mix)
TTITLE3=For All We Know(Freddy Mix-Lionel Vinyl Mix)
TTITLE4=For All We Know(LP Version-Seth And Jess TheThub Mix)
TTITLE5=Think It Over(Polo Soubim Mix)(For All We Know Australian CD Single Ve
TTITLE5=rsion)
EXTD=
EXTT0=
EXTT1=
EXTT2=
EXTT3=
EXTT4=
EXTT5=
PLAYORDER=
